<svg fill="none" height="40" viewBox="0 0 247 40" width="247" xmlns="http://www.w3.org/2000/svg" xmlns:xlink="http://www.w3.org/1999/xlink"><linearGradient id="a" gradientUnits="userSpaceOnUse" x1="38.4518" x2="38.4518" y1="8.21484" y2="41.5482"><stop offset="0" stop-color="#fff"/><stop offset=".8" stop-color="#fff" stop-opacity="0"/></linearGradient><linearGradient id="b" gradientUnits="userSpaceOnUse" x1="29.0237" x2="29.0237" y1="-1.21338" y2="32.12"><stop offset=".2" stop-color="#fff" stop-opacity="0"/><stop offset="1" stop-color="#fff"/></linearGradient><g fill="#fff" fill-opacity=".92"><path d="m242.935 27.9824v-19.51414h3.732v19.51414z"/><path d="m227.892 23.6101c0-1.3855.505-2.5101 1.514-3.3738 1.01-.8637 2.334-1.2956 3.975-1.2956 1.28 0 2.298.2609 3.055.7828v-.9177c0-.6298-.225-1.1336-.676-1.5115-.45-.3779-1.081-.5668-1.893-.5668-1.207 0-2.46.3329-3.758.9987l-1.406-2.5372c.685-.4678 1.523-.8637 2.515-1.1875 1.009-.3239 2.028-.4859 3.055-.4859 2.127 0 3.641.4949 4.543 1.4845.901.9717 1.351 2.3212 1.351 4.0486v8.9339h-3.298l-.244-.9177c-.793.8457-1.937 1.2685-3.434 1.2685-1.496 0-2.757-.4228-3.785-1.2685-1.009-.8637-1.514-2.0153-1.514-3.4548zm4.407-1.5115c-.45.3599-.676.8277-.676 1.4035s.235 1.0437.703 1.4035c.469.3599 1.055.5398 1.758.5398.721 0 1.307-.1709 1.757-.5128.451-.3598.676-.8367.676-1.4305 0-.6118-.225-1.0886-.676-1.4305-.45-.3598-1.045-.5398-1.784-.5398-.721 0-1.307.189-1.758.5668z"/><path d="m211.936 27.9824v-19.51414h3.731v6.88264c.289-.3959.793-.8008 1.514-1.2146.721-.4139 1.614-.6208 2.677-.6208 2.019 0 3.641.6928 4.867 2.0783 1.226 1.3675 1.839 3.1489 1.839 5.3441 0 2.1772-.649 3.9586-1.947 5.3441-1.28 1.3675-2.938 2.0513-4.975 2.0513-1.046 0-1.929-.1979-2.65-.5938-.703-.4138-1.217-.8187-1.541-1.2146v1.4575zm3.623-7.0175c0 1.1516.325 2.1232.974 2.915.666.7737 1.55 1.1606 2.649 1.1606 1.064 0 1.929-.3689 2.596-1.1067.685-.7377 1.027-1.7273 1.027-2.9689 0-1.2236-.333-2.2222-1-2.996-.667-.7737-1.541-1.1606-2.623-1.1606-1.063 0-1.937.3689-2.622 1.1067-.667.7377-1.001 1.7543-1.001 3.0499z"/><path d="m196.706 26.2552c-1.424-1.3855-2.136-3.1489-2.136-5.2902 0-2.1412.721-3.9136 2.163-5.3171 1.46-1.4215 3.271-2.1323 5.434-2.1323s3.975.7108 5.435 2.1323 2.19 3.1939 2.19 5.3171c0 2.1413-.721 3.9047-2.163 5.2902-1.424 1.3855-3.244 2.0782-5.462 2.0782-2.199 0-4.019-.6927-5.461-2.0782zm1.595-5.2902c0 1.1876.36 2.1683 1.081 2.942.739.7557 1.668 1.1336 2.785 1.1336 1.136 0 2.064-.3779 2.785-1.1336.739-.7737 1.109-1.7544 1.109-2.942 0-1.2056-.37-2.1952-1.109-2.9689-.739-.7918-1.667-1.1876-2.785-1.1876-1.117 0-2.046.3958-2.785 1.1876-.721.7737-1.081 1.7633-1.081 2.9689z"/><path d="m188.673 27.9824v-19.51414h3.732v19.51414z"/><path d="m177.64 8.73828c1.766 0 3.289.33288 4.569.99865 1.28.64777 2.244 1.35857 2.893 2.13227l-2.406 2.4831c-1.262-1.3855-2.893-2.0783-4.894-2.0783-1.821 0-3.281.5938-4.38 1.7814-1.082 1.1876-1.623 2.6811-1.623 4.4805 0 1.8893.559 3.4008 1.677 4.5344 1.135 1.1336 2.577 1.7004 4.326 1.7004 1.153 0 2.118-.162 2.893-.4859.775-.3418 1.325-.6747 1.649-.9986v-2.3212h-3.596v-3.2119h7.165v7.4764c-1.171 1.0077-2.388 1.7814-3.65 2.3212-1.262.5218-2.803.7827-4.623.7827-2.758 0-5.084-.8997-6.976-2.699-1.893-1.8174-2.839-4.1836-2.839-7.0985 0-2.7531.919-5.0743 2.757-6.9636 1.857-1.88935 4.209-2.83402 7.058-2.83402z"/><path d="m146.723 23.6101c0-1.3855.505-2.5101 1.514-3.3738 1.01-.8637 2.335-1.2956 3.975-1.2956 1.28 0 2.298.2609 3.055.7828v-.9177c0-.6298-.225-1.1336-.676-1.5115-.45-.3779-1.081-.5668-1.892-.5668-1.208 0-2.461.3329-3.759.9987l-1.406-2.5372c.685-.4678 1.524-.8637 2.515-1.1875 1.009-.3239 2.028-.4859 3.055-.4859 2.127 0 3.642.4949 4.543 1.4845.901.9717 1.352 2.3212 1.352 4.0486v8.9339h-3.299l-.243-.9177c-.793.8457-1.938 1.2685-3.434 1.2685s-2.758-.4228-3.786-1.2685c-1.009-.8637-1.514-2.0153-1.514-3.4548zm4.407-1.5115c-.45.3599-.675.8277-.675 1.4035s.234 1.0437.703 1.4035c.468.3599 1.054.5398 1.757.5398.721 0 1.307-.1709 1.758-.5128.45-.3598.676-.8367.676-1.4305 0-.6118-.226-1.0886-.676-1.4305-.451-.3598-1.046-.5398-1.785-.5398-.721 0-1.307.189-1.758.5668z"/><path d="m138.882 13.8664v-2.9689h3.677v2.9689h2.65v3.023h-2.65v5.4521c0 1.0076.153 1.6824.46 2.0242.324.3419.865.5129 1.622.5129.252 0 .478-.009.676-.027v3.1849c-.379.0899-.91.1349-1.595.1349-1.677 0-2.911-.4678-3.705-1.4035-.775-.9537-1.162-2.3932-1.162-4.3185v-5.56h-1.487v-3.023z"/><path d="m131.106 28.3334c-1.28 0-2.37-.2519-3.271-.7557-.884-.5218-1.551-1.1426-2.001-1.8623l2.19-1.9434c.883 1.0257 1.965 1.5385 3.244 1.5385.541 0 .965-.108 1.271-.3239.307-.2339.46-.5488.46-.9447 0-.3778-.234-.7017-.703-.9716-.451-.2879-1.01-.5398-1.676-.7558-.649-.2339-1.298-.5038-1.947-.8097-.649-.3239-1.208-.8007-1.677-1.4305-.45-.6477-.676-1.4395-.676-2.3751 0-1.2776.487-2.2942 1.46-3.05.974-.7557 2.2-1.1336 3.678-1.1336 2.199 0 3.812.8367 4.84 2.5101l-2.461 1.8354c-.721-.8997-1.568-1.3495-2.542-1.3495-.432 0-.784.1079-1.054.3239-.27.1979-.406.4678-.406.8097 0 .3958.226.7287.676.9986.469.2699 1.028.5129 1.677.7288.667.1979 1.325.4498 1.974.7557.667.2879 1.225.7467 1.676 1.3765.469.6298.703 1.4125.703 2.3482 0 1.3495-.514 2.4382-1.541 3.2659-1.028.8097-2.326 1.2145-3.894 1.2145z"/><path d="m120.1 27.9826v-14.116h3.731v14.116zm.297-15.9784c-.415-.4138-.622-.9267-.622-1.5385 0-.61174.207-1.11556.622-1.51142.415-.41386.928-.62078 1.541-.62078.631 0 1.154.20692 1.568.62078.415.39586.622.89968.622 1.51142 0 .6118-.207 1.1247-.622 1.5385-.414.3959-.937.5938-1.568.5938-.613 0-1.126-.1979-1.541-.5938z"/><path d="m117.176 8.46826v19.51414h-3.515v-1.4575c-.18.234-.423.4679-.73.7018-.288.2339-.757.4768-1.406.7287-.649.252-1.334.3779-2.055.3779-2.037 0-3.704-.6838-5.002-2.0513-1.28-1.3855-1.92-3.1669-1.92-5.3441 0-2.1952.613-3.9766 1.839-5.3441 1.226-1.3855 2.848-2.0783 4.867-2.0783 1.063 0 1.956.2069 2.677.6208.721.4138 1.226.8187 1.514 1.2146v-6.88264zm-3.623 12.49664c0-1.2956-.342-2.3122-1.027-3.0499-.667-.7378-1.533-1.1067-2.596-1.1067-1.082 0-1.956.3869-2.623 1.1606-.667.7738-1 1.7724-1 2.996 0 1.2416.333 2.2312 1 2.9689.685.7378 1.559 1.1067 2.623 1.1067 1.099 0 1.974-.3869 2.623-1.1606.667-.7918 1-1.7634 1-2.915z"/><path d="m95.6381 13.5156c3.2626 0 4.8939 2.1053 4.8939 6.3158v8.1512h-3.7313v-8.583c0-.7558-.2343-1.3676-.703-1.8354-.4506-.4678-1.0004-.7017-1.6493-.7017-.7571 0-1.37.2519-1.8386.7557-.4507.4858-.676 1.1156-.676 1.8893v8.4751h-3.7313v-14.1161h3.6502v1.6464c.3425-.5398.8472-1.0076 1.5141-1.4035.667-.3958 1.4241-.5938 2.2713-.5938z"/><path d="m72.3417 20.965c0-2.1412.649-3.9136 1.9468-5.3171 1.3159-1.4215 2.9743-2.1323 4.9751-2.1323 2.1631 0 3.8485.6748 5.0563 2.0243 1.2077 1.3316 1.8115 3.1669 1.8115 5.5061 0 .3599-.009.6298-.027.8097h-9.9502c.036.9537.3966 1.7364 1.0815 2.3482.685.5938 1.5502.8907 2.5957.8907 1.4962 0 2.6408-.5758 3.434-1.7274l2.4605 1.8623c-.3966.7198-1.0996 1.4215-2.109 2.1053-1.0095.6658-2.2893.9986-3.8395.9986-2.2352 0-4.0378-.6837-5.4078-2.0512-1.3519-1.3856-2.0279-3.1579-2.0279-5.3172zm3.9206-1.5384h6.0837c-.036-.8637-.3334-1.5565-.8922-2.0783s-1.2709-.7827-2.1361-.7827-1.5682.2699-2.109.8097-.8562 1.2235-.9464 2.0513z"/><path d="m71.4273 13.5156v3.7787c-2.5416 0-3.8125 1.5115-3.8125 4.5344v6.1539h-3.7313v-14.1161h3.6502v2.0513c.3245-.7198.8292-1.2956 1.5142-1.7274.685-.4499 1.4781-.6748 2.3794-.6748z"/><path d="m54.4343 27.9827v-15.4655h-4.4343v-3.42784h12.6541v3.42784h-4.4073v15.4655z"/></g><rect fill="url(#a)" height="33.3333" rx="6.66667" transform="matrix(.70710678 .70710678 -.70710678 .70710678 15.118409 -20.069389)" width="13.3333" x="31.7851" y="8.21484"/><rect fill="url(#b)" height="33.3333" rx="6.66667" transform="matrix(.70710678 .70710678 -.70710678 .70710678 5.690224 -16.164177)" width="13.3333" x="22.357" y="-1.21338"/></svg>