<svg fill="none" height="32" viewBox="0 0 198 32" width="198" xmlns="http://www.w3.org/2000/svg" xmlns:xlink="http://www.w3.org/1999/xlink"><linearGradient id="a" gradientUnits="userSpaceOnUse" x1="30.7614" x2="30.7614" y1="6.57191" y2="33.2386"><stop offset="0" stop-color="#329f5b"/><stop offset=".8" stop-color="#329f5b" stop-opacity="0"/></linearGradient><linearGradient id="b" gradientUnits="userSpaceOnUse" x1="23.219" x2="23.219" y1="-.970566" y2="25.6961"><stop offset=".2" stop-color="#f0544f" stop-opacity="0"/><stop offset="1" stop-color="#f0544f"/></linearGradient><g fill="#292929"><path d="m194.348 22.386v-15.61136h2.985v15.61136z"/><path d="m182.314 18.888c0-1.1084.403-2.0081 1.211-2.6991.807-.6909 1.867-1.0364 3.18-1.0364 1.023 0 1.838.2087 2.444.6262v-.7342c0-.5038-.18-.9068-.541-1.2091-.36-.3023-.865-.4535-1.514-.4535-.966 0-1.968.2663-3.007.7989l-1.125-2.0296c.548-.3743 1.219-.691 2.012-.9501.808-.2591 1.622-.3887 2.444-.3887 1.702 0 2.913.3959 3.634 1.1876.721.7773 1.082 1.857 1.082 3.2389v7.1471h-2.639l-.195-.7342c-.634.6766-1.55 1.0149-2.747 1.0149s-2.206-.3383-3.028-1.0149c-.808-.6909-1.211-1.6122-1.211-2.7638zm3.525-1.2092c-.36.2879-.54.6622-.54 1.1228 0 .4607.187.8349.562 1.1228s.844.4319 1.406.4319c.577 0 1.046-.1368 1.406-.4103.361-.2879.541-.6693.541-1.1444 0-.4894-.18-.8709-.541-1.1444-.36-.2879-.836-.4318-1.428-.4318-.576 0-1.045.1511-1.406.4534z"/><path d="m169.549 22.386v-15.61136h2.985v5.50606c.231-.3167.634-.6406 1.211-.9716.577-.3311 1.291-.4967 2.142-.4967 1.615 0 2.913.5542 3.893 1.6626.981 1.0941 1.471 2.5192 1.471 4.2754 0 1.7417-.519 3.1668-1.557 4.2753-1.024 1.094-2.351 1.641-3.98 1.641-.837 0-1.543-.1584-2.12-.4751-.563-.331-.974-.6549-1.233-.9716v1.166zm2.898-5.6141c0 .9213.26 1.6986.779 2.332.534.619 1.24.9285 2.12.9285.851 0 1.543-.2951 2.076-.8853.548-.5902.822-1.3819.822-2.3752 0-.9788-.266-1.7777-.8-2.3967s-1.233-.9285-2.098-.9285c-.851 0-1.55.2951-2.098.8853-.534.5902-.801 1.4035-.801 2.4399z"/><path d="m157.364 21.0041c-1.139-1.1085-1.708-2.5192-1.708-4.2322s.576-3.1309 1.73-4.2537c1.168-1.1372 2.617-1.7058 4.348-1.7058 1.73 0 3.18.5686 4.348 1.7058s1.752 2.5551 1.752 4.2537c0 1.713-.577 3.1237-1.731 4.2322-1.139 1.1084-2.595 1.6626-4.369 1.6626-1.759 0-3.216-.5542-4.37-1.6626zm1.277-4.2322c0 .9501.288 1.7346.865 2.3536.591.6046 1.334.9069 2.228.9069.908 0 1.651-.3023 2.228-.9069.591-.619.887-1.4035.887-2.3536 0-.9644-.296-1.7561-.887-2.3751-.591-.6334-1.334-.9501-2.228-.9501s-1.637.3167-2.228.9501c-.577.619-.865 1.4107-.865 2.3751z"/><path d="m150.939 22.386v-15.61136h2.985v15.61136z"/><path d="m142.112 6.99055c1.413 0 2.631.26631 3.655.79893 1.024.51821 1.796 1.08682 2.315 1.7058l-1.925 1.98652c-1.01-1.1084-2.315-1.66263-3.916-1.66263-1.456 0-2.624.47503-3.504 1.42513-.865.95-1.298 2.1448-1.298 3.5843 0 1.5115.447 2.7207 1.341 3.6275.909.9069 2.063 1.3604 3.461 1.3604.923 0 1.695-.1296 2.315-.3887.62-.2735 1.06-.5398 1.319-.7989v-1.857h-2.877v-2.5695h5.733v5.9811c-.938.8062-1.911 1.4251-2.92 1.857-1.01.4174-2.243.6262-3.699.6262-2.207 0-4.067-.7198-5.581-2.1593-1.514-1.4539-2.271-3.3468-2.271-5.6788 0-2.2024.735-4.0594 2.206-5.57084 1.485-1.51147 3.367-2.26721 5.646-2.26721z"/><path d="m117.379 18.888c0-1.1084.403-2.0081 1.211-2.6991.807-.6909 1.867-1.0364 3.18-1.0364 1.023 0 1.838.2087 2.444.6262v-.7342c0-.5038-.18-.9068-.541-1.2091-.36-.3023-.865-.4535-1.514-.4535-.966 0-1.968.2663-3.007.7989l-1.125-2.0296c.548-.3743 1.219-.691 2.012-.9501.808-.2591 1.622-.3887 2.444-.3887 1.702 0 2.913.3959 3.634 1.1876.721.7773 1.082 1.857 1.082 3.2389v7.1471h-2.639l-.195-.7342c-.634.6766-1.55 1.0149-2.747 1.0149s-2.206-.3383-3.028-1.0149c-.808-.6909-1.211-1.6122-1.211-2.7638zm3.525-1.2092c-.36.2879-.54.6622-.54 1.1228 0 .4607.187.8349.562 1.1228s.844.4319 1.406.4319c.577 0 1.046-.1368 1.406-.4103.361-.2879.541-.6693.541-1.1444 0-.4894-.18-.8709-.541-1.1444-.36-.2879-.836-.4318-1.428-.4318-.576 0-1.045.1511-1.406.4534z"/><path d="m111.105 11.0931v-2.37514h2.942v2.37514h2.12v2.4184h-2.12v4.3617c0 .8061.123 1.3459.368 1.6194.259.2735.692.4102 1.298.4102.202 0 .382-.0072.541-.0216v2.548c-.303.0719-.729.1079-1.277.1079-1.341 0-2.329-.3743-2.963-1.1228-.62-.7629-.93-1.9145-.93-3.4548v-4.448h-1.19v-2.4184z"/><path d="m104.885 22.6667c-1.024 0-1.896-.2016-2.617-.6046-.707-.4175-1.241-.9141-1.601-1.4899l1.752-1.5546c.707.8205 1.572 1.2307 2.596 1.2307.432 0 .771-.0863 1.016-.2591.246-.1871.368-.439.368-.7557 0-.3023-.187-.5614-.562-.7774-.361-.2303-.808-.4318-1.341-.6045-.52-.1872-1.039-.4031-1.558-.6478-.519-.2591-.966-.6406-1.341-1.1444-.36-.5182-.541-1.1516-.541-1.9001 0-1.0221.39-1.8354 1.168-2.44.779-.6046 1.76-.9069 2.942-.9069 1.76 0 3.05.6694 3.872 2.0081l-1.968 1.4683c-.577-.7197-1.255-1.0796-2.034-1.0796-.346 0-.627.0864-.843.2591-.217.1583-.325.3743-.325.6478 0 .3167.181.583.541.7989.375.2159.822.4102 1.341.583.534.1583 1.06.3599 1.579.6046.534.2303.981.5974 1.341 1.1012.375.5038.563 1.13.563 1.8785 0 1.0797-.411 1.9505-1.233 2.6127-.822.6478-1.86.9717-3.115.9717z"/><path d="m96.0797 22.386v-11.2929h2.985v11.2929zm.2379-12.78276c-.3317-.33108-.4975-.74134-.4975-1.23077 0-.48942.1658-.89248.4975-1.20917.3317-.33109.7427-.49663 1.233-.49663.5047 0 .9229.16554 1.2546.49663.3316.31669.4975.71975.4975 1.20917 0 .48943-.1659.89969-.4975 1.23077-.3317.31669-.7499.47506-1.2546.47506-.4903 0-.9013-.15837-1.233-.47506z"/><path d="m93.741 6.77464v15.61136h-2.812v-1.166c-.1442.1871-.3389.3743-.5841.5614-.2307.1871-.6056.3815-1.1248.583-.5191.2015-1.0671.3023-1.6439.3023-1.6295 0-2.9635-.547-4.0017-1.641-1.0239-1.1085-1.5358-2.5336-1.5358-4.2753 0-1.7562.4903-3.1813 1.4709-4.2754.9806-1.1084 2.2784-1.6626 3.8935-1.6626.8509 0 1.5647.1656 2.1415.4967.5768.331.9806.6549 1.2113.9716v-5.50606zm-2.8986 9.99726c0-1.0364-.2739-1.8497-.8219-2.4399-.5336-.5902-1.2258-.8853-2.0766-.8853-.8652 0-1.5646.3095-2.0982.9285s-.8003 1.4179-.8003 2.3967c0 .9933.2667 1.785.8003 2.3752.548.5902 1.2474.8853 2.0982.8853.8797 0 1.5791-.3095 2.0982-.9285.5336-.6334.8003-1.4107.8003-2.332z"/><path d="m76.5105 10.8124c2.6101 0 3.9151 1.6842 3.9151 5.0527v6.5209h-2.985v-6.8664c0-.6046-.1875-1.094-.5624-1.4683-.3605-.3743-.8004-.5614-1.3195-.5614-.6057 0-1.096.2015-1.4709.6046-.3605.3886-.5408.8925-.5408 1.5114v6.7801h-2.985v-11.2929h2.9201v1.3172c.274-.4319.6778-.8062 1.2114-1.1228.5335-.3167 1.1392-.4751 1.817-.4751z"/><path d="m57.8734 16.7719c0-1.713.5191-3.1309 1.5574-4.2537 1.0527-1.1372 2.3794-1.7058 3.9801-1.7058 1.7305 0 3.0788.5398 4.045 1.6195.9662 1.0652 1.4493 2.5335 1.4493 4.4048 0 .2879-.0073.5038-.0217.6478h-7.9602c.0289.7629.3173 1.3891.8653 1.8785.548.4751 1.2402.7126 2.0765.7126 1.197 0 2.1127-.4607 2.7472-1.3819l1.9684 1.4898c-.3173.5758-.8797 1.1372-1.6872 1.6843-.8076.5326-1.8314.7989-3.0716.7989-1.7882 0-3.2302-.547-4.3262-1.6411-1.0815-1.1084-1.6223-2.5263-1.6223-4.2537zm3.1365-1.2307h4.8669c-.0288-.691-.2668-1.2452-.7138-1.6627-.447-.4174-1.0167-.6261-1.7088-.6261-.6922 0-1.2546.2159-1.6873.6477-.4326.4319-.6849.9789-.757 1.6411z"/><path d="m57.1418 10.8124v3.023c-2.0333 0-3.0499 1.2091-3.0499 3.6275v4.9231h-2.9851v-11.2929h2.9202v1.6411c.2596-.5758.6633-1.0365 1.2113-1.382.548-.3598 1.1825-.5398 1.9035-.5398z"/><path d="m43.5475 22.386v-12.3725h-3.5475v-2.74224h10.1233v2.74224h-3.5259v12.3725z"/></g><rect fill="url(#a)" height="26.6667" rx="5.33333" transform="matrix(.70710678 .70710678 -.70710678 .70710678 12.09476 -16.055514)" width="10.6667" x="25.4281" y="6.57191"/><rect fill="url(#b)" height="26.6667" rx="5.33333" transform="matrix(.70710678 .70710678 -.70710678 .70710678 4.552277 -12.931301)" width="10.6667" x="17.8856" y="-.970566"/></svg>